<?xml version="1.0" encoding="utf-8"?>
<!-- Generator: Adobe Illustrator 27.3.1, SVG Export Plug-In . SVG Version: 6.00 Build 0)  -->
<svg version="1.1" id="Layer_1" xmlns="http://www.w3.org/2000/svg" xmlns:xlink="http://www.w3.org/1999/xlink" x="0px" y="0px"
	 viewBox="0 0 1000 264.22" style="enable-background:new 0 0 1000 264.22;" xml:space="preserve">
<style type="text/css">
	.st0{fill:#FFFFFF;}
	.st1{clip-path:url(#SVGID_00000099625560651368855300000013456843807371750067_);}
	.st2{fill:#02002D;}
	.st3{fill:url(#SVGID_00000111178248615771141160000005867559047336801439_);}
	.st4{fill:url(#SVGID_00000111884105375470885520000006532061629284315010_);}
	.st5{fill:url(#SVGID_00000135692887731776847140000010225247110539857574_);}
	.st6{fill:url(#SVGID_00000056424741588943435620000016904444522270356658_);}
	.st7{fill:url(#SVGID_00000000913028025196620190000002792509955109090736_);}
	.st8{fill:url(#SVGID_00000166640778161250380730000011356881728622026375_);}
	.st9{fill:url(#SVGID_00000026135363240628175420000008904320807103657388_);}
	.st10{fill:url(#SVGID_00000158009018226220100920000008782381037338829744_);}
	.st11{fill:url(#SVGID_00000076575922597554570320000012340840338424972689_);}
	.st12{fill:url(#SVGID_00000101796327903218088350000013860096446626848146_);}
	.st13{fill:url(#SVGID_00000029027757372663037690000001147743106981757583_);}
	.st14{fill:url(#SVGID_00000013163269363197464980000002156560493845174926_);}
	.st15{fill:url(#SVGID_00000157285235573062462660000005463771364056043434_);}
	.st16{fill:url(#SVGID_00000099651621317870068220000013974643725915452057_);}
</style>
<rect y="0" class="st0" width="1000" height="264.22"/>
<g>
	<g>
		<g>
			<g>
				<path class="st2" d="M421.07,27.99c12.8,0,14.93,2.67,20.61,10.49l65.4,86.72c0.53,0.89,1.24,1.24,2.31,1.24h1.6
					c0.89,0,1.42-0.53,1.42-1.78V31.9c0-2.67,1.24-3.91,3.91-3.91h19.02c2.67,0,3.91,1.24,3.91,3.91v102.01
					c0,14.04-4.8,18.48-15.99,18.48h-15.82c-12.8,0-14.93-2.67-20.44-10.49l-65.58-86.72c-0.71-0.89-1.24-1.24-2.31-1.24h-1.6
					c-1.07,0-1.42,0.53-1.42,1.78v92.77c0,2.67-1.42,3.91-3.91,3.91h-19.02c-2.67,0-3.91-1.24-3.91-3.91V46.47
					c0-14.04,4.62-18.48,15.82-18.48H421.07z"/>
				<path class="st2" d="M653.33,54.82c31.1,0,42.3,9.42,42.3,35.9v25.77c0,26.48-11.2,35.9-42.3,35.9h-50.29
					c-31.1,0-42.12-9.42-42.12-35.9V90.72c0-26.48,11.02-35.9,42.12-35.9H653.33z M586.15,112.05c0,14.93,3.91,18.66,19.37,18.66
					h45.32c15.64,0,19.55-3.73,19.55-18.66V95.16c0-14.75-3.91-18.48-19.55-18.48h-45.32c-15.46,0-19.37,3.73-19.37,18.48V112.05z"
					/>
				<path class="st2" d="M824.1,54.82V23.01c0-2.67,1.42-3.91,3.91-3.91h17.42c2.67,0,3.91,1.24,3.91,3.91v93.48
					c0,26.3-10.84,35.9-42.3,35.9h-49.76c-31.28,0-42.12-9.6-42.12-35.9V90.72c0-26.12,10.84-35.9,42.12-35.9H824.1z M824.1,111.51
					V76.86h-64.33c-15.28,0-19.37,3.73-19.37,18.84v15.82c0,15.11,4.09,18.84,19.37,18.84h44.78
					C819.83,130.35,824.1,126.62,824.1,111.51z"/>
				<path class="st2" d="M961.81,54.82c23.81,0,30.74,7.11,30.74,29.15v18.3c0,7.29-3.02,9.95-10.13,9.95h-89.74v3.2
					c0,11.2,4.26,14.93,19.55,14.93h74.11c2.13,0,3.2,1.07,3.2,3.2v15.64c0,2.13-1.07,3.2-3.2,3.2h-76.59
					c-31.46,0-42.3-9.6-42.3-35.9V90.72c0-26.12,10.84-35.9,42.3-35.9H961.81z M964.48,93.92c2.13,0,3.02-1.07,3.02-3.02v-6.22
					c0-6.93-2.13-8.71-10.84-8.71h-44.43c-15.82,0-19.55,3.2-19.55,14.39v3.55H964.48z"/>
			</g>
			<g>
				
					<linearGradient id="SVGID_00000108992431962295076090000004851325483994881979_" gradientUnits="userSpaceOnUse" x1="427.4583" y1="148.9389" x2="427.4583" y2="285.6665">
					<stop  offset="0" style="stop-color:#14B5FC"/>
					<stop  offset="1" style="stop-color:#3D00E8"/>
				</linearGradient>
				<path style="fill:url(#SVGID_00000108992431962295076090000004851325483994881979_);" d="M392.28,173.88h70.35v12.51
					l-56.28,47.29h56.28v10.55h-70.35v-12.51l56.28-47.29h-56.28V173.88z"/>
				
					<linearGradient id="SVGID_00000096025363125606299200000015318466685700665477_" gradientUnits="userSpaceOnUse" x1="603.111" y1="148.9389" x2="603.111" y2="285.6665">
					<stop  offset="0" style="stop-color:#14B5FC"/>
					<stop  offset="1" style="stop-color:#3D00E8"/>
				</linearGradient>
				<path style="fill:url(#SVGID_00000096025363125606299200000015318466685700665477_);" d="M635.35,184.43h-53.93v19.35h43.38
					v10.55h-43.38v19.35h53.93v10.55h-64.49v-70.35h64.49V184.43z"/>
				
					<linearGradient id="SVGID_00000124883902434514119410000011663042672354386591_" gradientUnits="userSpaceOnUse" x1="778.2759" y1="148.9389" x2="778.2759" y2="285.6665">
					<stop  offset="0" style="stop-color:#14B5FC"/>
					<stop  offset="1" style="stop-color:#3D00E8"/>
				</linearGradient>
				<path style="fill:url(#SVGID_00000124883902434514119410000011663042672354386591_);" d="M813.45,206.42
					c0,6.94-5.67,12.7-12.7,12.7h-7.13l19.83,23.65v1.47h-12.51l-21.11-25.11H755.8c-0.78,0-1.47-0.1-2.15-0.2v25.31H743.1v-70.25
					h57.65c7.03,0,12.7,5.76,12.7,12.7V206.42z M800.75,208.57c1.17,0,2.15-0.98,2.15-2.15v-19.74c0-1.17-0.98-2.15-2.15-2.15H755.8
					c-1.17,0-2.15,0.98-2.15,2.15v19.74c0,1.17,0.98,2.15,2.15,2.15H800.75z"/>
				
					<linearGradient id="SVGID_00000023255407859559149010000001656636759625412760_" gradientUnits="userSpaceOnUse" x1="956.4681" y1="148.9389" x2="956.4681" y2="285.6665">
					<stop  offset="0" style="stop-color:#14B5FC"/>
					<stop  offset="1" style="stop-color:#3D00E8"/>
				</linearGradient>
				<path style="fill:url(#SVGID_00000023255407859559149010000001656636759625412760_);" d="M978.94,173.88
					c7.03,0,12.7,5.67,12.7,12.7v44.95c0,7.03-5.67,12.7-12.7,12.7H934c-7.03,0-12.7-5.67-12.7-12.7v-44.95
					c0-7.03,5.67-12.7,12.7-12.7H978.94z M978.94,233.68c1.17,0,2.15-0.98,2.15-2.15v-44.95c0-1.17-0.98-2.15-2.15-2.15H934
					c-1.17,0-2.15,0.98-2.15,2.15v44.95c0,1.17,0.98,2.15,2.15,2.15H978.94z"/>
			</g>
		</g>
	</g>
	<g>
		<g>
			
				<linearGradient id="SVGID_00000045601532443061252670000011667940151510368955_" gradientUnits="userSpaceOnUse" x1="285.4772" y1="-9.9324" x2="86.0608" y2="181.6329">
				<stop  offset="0" style="stop-color:#14B5FC"/>
				<stop  offset="1" style="stop-color:#3D00E8"/>
			</linearGradient>
			<path style="fill:url(#SVGID_00000045601532443061252670000011667940151510368955_);" d="M223.48,106.66
				c0.11-6.98-4.14-13.27-10.51-15.62c-5.78-2.13-12.39-0.69-16.91,3.71h-0.02L80.98,229.38H8.11L151.12,62.1
				c13.15-11.49,31.12-15.13,46.22-9.09c8.28,3.3,15.17,9.31,19.95,16.89C223.78,80.16,226.43,93.33,223.48,106.66z"/>
			
				<linearGradient id="SVGID_00000162323862365778573720000014957221608885484937_" gradientUnits="userSpaceOnUse" x1="328.8603" y1="35.2287" x2="129.4439" y2="226.794">
				<stop  offset="0" style="stop-color:#14B5FC"/>
				<stop  offset="1" style="stop-color:#3D00E8"/>
			</linearGradient>
			<path style="fill:url(#SVGID_00000162323862365778573720000014957221608885484937_);" d="M143.06,156.67
				c-0.11,6.98,4.14,13.27,10.51,15.62c5.78,2.13,12.39,0.69,16.91-3.71h0.02L285.57,33.95h72.87L215.43,201.23
				c-13.15,11.49-31.12,15.13-46.22,9.09c-8.28-3.3-15.17-9.31-19.95-16.89C142.77,183.17,140.12,170,143.06,156.67z"/>
		</g>
		<g>
			
				<linearGradient id="SVGID_00000026144903219596417690000002039944072744813453_" gradientUnits="userSpaceOnUse" x1="307.1706" y1="12.6501" x2="107.7543" y2="204.2154">
				<stop  offset="0" style="stop-color:#14B5FC"/>
				<stop  offset="1" style="stop-color:#3D00E8"/>
			</linearGradient>
			<path style="fill:url(#SVGID_00000026144903219596417690000002039944072744813453_);" d="M305.64,112.94l-34.91,40.83v0.02
				c-7.52,29.69-29.78,53.55-58.52,63.31c-0.02,0-0.04,0-0.06,0.02c-9.07,3.08-18.79,4.74-28.88,4.74c-7.43,0-14.65-0.9-21.55-2.61
				c-0.02,0-0.02,0-0.04,0c-14.87-3.68-28.33-11.03-39.28-21.09l-21.83,25.53c21.94,19.74,50.96,31.76,82.7,31.76
				c68.26,0,123.79-55.53,123.79-123.79C307.06,125.29,306.57,119.04,305.64,112.94z M154.33,46.23c0.02,0,0.04,0,0.06-0.02
				c9.07-3.08,18.79-4.74,28.89-4.74c7.43,0,14.63,0.9,21.53,2.59c14.91,3.68,28.38,11.07,39.35,21.12l21.83-25.54
				c-21.94-19.74-50.96-31.76-82.72-31.76C115.03,7.89,59.5,63.42,59.5,131.66c0,6.36,0.49,12.61,1.42,18.72l34.91-40.83
				C103.33,79.88,125.59,55.99,154.33,46.23z"/>
		</g>
	</g>
</g>
</svg>
